<svg width="316" height="655" xmlns="http://www.w3.org/2000/svg" xmlns:xlink="http://www.w3.org/1999/xlink" overflow="hidden"><g transform="translate(-591 -47)"><path d="M592 50.4422 903.216 50.4422 903.216 92.0422 592 92.0422Z" fill="#4472C4" fill-rule="evenodd"/><path d="M592 92.0422 903.216 92.0422 903.216 130.976 592 130.976Z" fill="#CFD5EA" fill-rule="evenodd"/><path d="M592 130.976 903.216 130.976 903.216 169.909 592 169.909Z" fill="#E9EBF5" fill-rule="evenodd"/><path d="M592 169.909 903.216 169.909 903.216 294.709 592 294.709Z" fill="#CFD5EA" fill-rule="evenodd"/><path d="M592 294.709 903.216 294.709 903.216 333.642 592 333.642Z" fill="#E9EBF5" fill-rule="evenodd"/><path d="M592 333.642 903.216 333.642 903.216 429.642 592 429.642Z" fill="#CFD5EA" fill-rule="evenodd"/><path d="M592 429.642 903.216 429.642 903.216 468.576 592 468.576Z" fill="#E9EBF5" fill-rule="evenodd"/><path d="M592 468.576 903.216 468.576 903.216 507.509 592 507.509Z" fill="#CFD5EA" fill-rule="evenodd"/><path d="M592 507.509 903.216 507.509 903.216 546.442 592 546.442Z" fill="#E9EBF5" fill-rule="evenodd"/><path d="M592 546.442 903.216 546.442 903.216 585.375 592 585.375Z" fill="#CFD5EA" fill-rule="evenodd"/><path d="M592 585.375 903.216 585.375 903.216 624.309 592 624.309Z" fill="#E9EBF5" fill-rule="evenodd"/><path d="M592 624.309 903.216 624.309 903.216 691.509 592 691.509Z" fill="#CFD5EA" fill-rule="evenodd"/><path d="M591.333 92.0422 903.883 92.0422" stroke="#FFFFFF" stroke-width="4" stroke-linejoin="round" stroke-miterlimit="10" fill="none" fill-rule="evenodd"/><path d="M591.333 130.976 903.883 130.976" stroke="#FFFFFF" stroke-width="1.33333" stroke-linejoin="round" stroke-miterlimit="10" fill="none" fill-rule="evenodd"/><path d="M591.333 169.909 903.883 169.909" stroke="#FFFFFF" stroke-width="1.33333" stroke-linejoin="round" stroke-miterlimit="10" fill="none" fill-rule="evenodd"/><path d="M591.333 294.709 903.883 294.709" stroke="#FFFFFF" stroke-width="1.33333" stroke-linejoin="round" stroke-miterlimit="10" fill="none" fill-rule="evenodd"/><path d="M591.333 333.642 903.883 333.642" stroke="#FFFFFF" stroke-width="1.33333" stroke-linejoin="round" stroke-miterlimit="10" fill="none" fill-rule="evenodd"/><path d="M591.333 429.642 903.883 429.642" stroke="#FFFFFF" stroke-width="1.33333" stroke-linejoin="round" stroke-miterlimit="10" fill="none" fill-rule="evenodd"/><path d="M591.333 468.576 903.883 468.576" stroke="#FFFFFF" stroke-width="1.33333" stroke-linejoin="round" stroke-miterlimit="10" fill="none" fill-rule="evenodd"/><path d="M591.333 507.509 903.883 507.509" stroke="#FFFFFF" stroke-width="1.33333" stroke-linejoin="round" stroke-miterlimit="10" fill="none" fill-rule="evenodd"/><path d="M591.333 546.442 903.883 546.442" stroke="#FFFFFF" stroke-width="1.33333" stroke-linejoin="round" stroke-miterlimit="10" fill="none" fill-rule="evenodd"/><path d="M591.333 585.375 903.883 585.375" stroke="#FFFFFF" stroke-width="1.33333" stroke-linejoin="round" stroke-miterlimit="10" fill="none" fill-rule="evenodd"/><path d="M591.333 624.309 903.883 624.309" stroke="#FFFFFF" stroke-width="1.33333" stroke-linejoin="round" stroke-miterlimit="10" fill="none" fill-rule="evenodd"/><path d="M592 49.7755 592 692.176" stroke="#FFFFFF" stroke-width="1.33333" stroke-linejoin="round" stroke-miterlimit="10" fill="none" fill-rule="evenodd"/><path d="M903.216 49.7755 903.216 692.176" stroke="#FFFFFF" stroke-width="1.33333" stroke-linejoin="round" stroke-miterlimit="10" fill="none" fill-rule="evenodd"/><path d="M591.333 50.4422 903.883 50.4422" stroke="#FFFFFF" stroke-width="1.33333" stroke-linejoin="round" stroke-miterlimit="10" fill="none" fill-rule="evenodd"/><path d="M591.333 691.509 903.883 691.509" stroke="#FFFFFF" stroke-width="1.33333" stroke-linejoin="round" stroke-miterlimit="10" fill="none" fill-rule="evenodd"/><text fill="#FFFFFF" font-family="DengXian,DengXian_MSFontService,sans-serif" font-weight="700" font-size="27" transform="translate(667.608 80)">构建卷积网络</text><g><text font-family="DengXian,DengXian_MSFontService,sans-serif" font-weight="700" font-size="24" transform="translate(601.6 119)">1.</text></g><text font-family="DengXian,DengXian_MSFontService,sans-serif" font-weight="700" font-size="24" transform="translate(627.433 119)">初始化参数</text><g><text font-family="DengXian,DengXian_MSFontService,sans-serif" font-weight="700" font-size="24" transform="translate(601.6 197)">2.</text></g><text font-family="DengXian,DengXian_MSFontService,sans-serif" font-weight="700" font-size="24" transform="translate(627.433 197)">初始化权重</text><text font-family="DengXian,DengXian_MSFontService,sans-serif" font-weight="400" font-size="24" transform="translate(647.1 226)">—</text><text font-family="DengXian,DengXian_MSFontService,sans-serif" font-weight="400" font-size="24" transform="translate(677.6 226)">0.01</text><text font-family="DengXian,DengXian_MSFontService,sans-serif" font-weight="400" font-size="24" transform="translate(727.433 226)">标准差</text><text font-family="DengXian,DengXian_MSFontService,sans-serif" font-weight="400" font-size="24" transform="translate(647.1 255)">—</text><text font-family="DengXian,DengXian_MSFontService,sans-serif" font-weight="400" font-size="24" transform="translate(677.6 255)">Xavier</text><text font-family="DengXian,DengXian_MSFontService,sans-serif" font-weight="400" font-size="24" transform="translate(746.933 255)">初始值</text><text font-family="DengXian,DengXian_MSFontService,sans-serif" font-weight="400" font-size="24" transform="translate(647.1 284)">—</text><text font-family="DengXian,DengXian_MSFontService,sans-serif" font-weight="400" font-size="24" transform="translate(677.6 284)">He</text><text font-family="DengXian,DengXian_MSFontService,sans-serif" font-weight="400" font-size="24" transform="translate(713.1 284)">初始值</text><g><text font-family="DengXian,DengXian_MSFontService,sans-serif" font-weight="700" font-size="24" transform="translate(601.6 360)">3.</text></g><text font-family="DengXian,DengXian_MSFontService,sans-serif" font-weight="700" font-size="24" transform="translate(627.433 360)">实现各层模型</text><text font-family="DengXian,DengXian_MSFontService,sans-serif" font-weight="400" font-size="24" transform="translate(647.1 389)">—</text><text font-family="DengXian,DengXian_MSFontService,sans-serif" font-weight="400" font-size="24" transform="translate(677.6 389)">前向传播</text><text font-family="DengXian,DengXian_MSFontService,sans-serif" font-weight="400" font-size="24" transform="translate(780.1 389)">forward()</text><text font-family="DengXian,DengXian_MSFontService,sans-serif" font-weight="400" font-size="24" transform="translate(647.1 418)">—</text><text font-family="DengXian,DengXian_MSFontService,sans-serif" font-weight="400" font-size="24" transform="translate(677.6 418)">反向传播</text><g><text font-family="DengXian,DengXian_MSFontService,sans-serif" font-weight="400" font-size="24" transform="translate(780.1 418)">backward()</text></g><g><text font-family="DengXian,DengXian_MSFontService,sans-serif" font-weight="700" font-size="24" transform="translate(601.6 495)">4.</text></g><text font-family="DengXian,DengXian_MSFontService,sans-serif" font-weight="700" font-size="24" transform="translate(627.433 495)">顺序向前传播</text><g><text font-family="DengXian,DengXian_MSFontService,sans-serif" font-weight="700" font-size="24" transform="translate(601.6 573)">5.</text></g><text font-family="DengXian,DengXian_MSFontService,sans-serif" font-weight="700" font-size="24" transform="translate(627.433 573)">计算损失</text><text font-family="DengXian,DengXian_MSFontService,sans-serif" font-weight="700" font-size="24" transform="translate(723.433 573)">/</text><text font-family="DengXian,DengXian_MSFontService,sans-serif" font-weight="700" font-size="24" transform="translate(733.433 573)">精度</text><g><text font-family="DengXian,DengXian_MSFontService,sans-serif" font-weight="700" font-size="24" transform="translate(601.6 651)">6.</text></g><text font-family="DengXian,DengXian_MSFontService,sans-serif" font-weight="700" font-size="24" transform="translate(627.433 651)">计算梯度</text><text font-family="DengXian,DengXian_MSFontService,sans-serif" font-weight="400" font-size="24" transform="translate(640.6 680)">—</text><text font-family="DengXian,DengXian_MSFontService,sans-serif" font-weight="400" font-size="24" transform="translate(664.6 680)">顺序向后传播</text><path d="M752 132 752 153.795 744 153.795 744 132ZM748 153.795 760 145.795 748 169.795 736 145.795Z" fill="#4472C4"/><path d="M752 293 752 314.795 744 314.795 744 293ZM748 314.795 760 306.795 748 330.795 736 306.795Z" fill="#4472C4"/><path d="M752 430 752 451.795 744 451.795 744 430ZM748 451.795 760 443.795 748 467.795 736 443.795Z" fill="#4472C4"/><path d="M752 506 752 527.795 744 527.795 744 506ZM748 527.795 760 519.795 748 543.795 736 519.795Z" fill="#4472C4"/><path d="M752 583 752 604.795 744 604.795 744 583ZM748 604.795 760 596.795 748 620.795 736 596.795Z" fill="#4472C4"/></g></svg>