<svg width="316" height="733" xmlns="http://www.w3.org/2000/svg" xmlns:xlink="http://www.w3.org/1999/xlink" overflow="hidden"><g transform="translate(-652 114)"><path d="M653-109.558 964.216-109.558 964.216-67.9578 653-67.9578Z" fill="#4472C4" fill-rule="evenodd"/><path d="M653-67.9578 964.216-67.9578 964.216 28.0422 653 28.0422Z" fill="#CFD5EA" fill-rule="evenodd"/><path d="M653 28.0422 964.216 28.0422 964.216 66.9755 653 66.9755Z" fill="#E9EBF5" fill-rule="evenodd"/><path d="M653 66.9755 964.216 66.9755 964.216 105.909 653 105.909Z" fill="#CFD5EA" fill-rule="evenodd"/><path d="M653 105.909 964.216 105.909 964.216 144.842 653 144.842Z" fill="#E9EBF5" fill-rule="evenodd"/><path d="M653 144.842 964.216 144.842 964.216 183.776 653 183.776Z" fill="#CFD5EA" fill-rule="evenodd"/><path d="M653 183.776 964.216 183.776 964.216 222.709 653 222.709Z" fill="#E9EBF5" fill-rule="evenodd"/><path d="M653 222.709 964.216 222.709 964.216 289.909 653 289.909Z" fill="#CFD5EA" fill-rule="evenodd"/><path d="M653 289.909 964.216 289.909 964.216 328.842 653 328.842Z" fill="#E9EBF5" fill-rule="evenodd"/><path d="M653 328.842 964.216 328.842 964.216 396.042 653 396.042Z" fill="#CFD5EA" fill-rule="evenodd"/><path d="M653 396.042 964.216 396.042 964.216 434.976 653 434.976Z" fill="#E9EBF5" fill-rule="evenodd"/><path d="M653 434.976 964.216 434.976 964.216 530.976 653 530.976Z" fill="#CFD5EA" fill-rule="evenodd"/><path d="M653 530.976 964.216 530.976 964.216 569.909 653 569.909Z" fill="#E9EBF5" fill-rule="evenodd"/><path d="M653 569.909 964.216 569.909 964.216 608.842 653 608.842Z" fill="#CFD5EA" fill-rule="evenodd"/><path d="M652.333-67.9578 964.883-67.9578" stroke="#FFFFFF" stroke-width="4" stroke-linejoin="round" stroke-miterlimit="10" fill="none" fill-rule="evenodd"/><path d="M652.333 28.0422 964.883 28.0422" stroke="#FFFFFF" stroke-width="1.33333" stroke-linejoin="round" stroke-miterlimit="10" fill="none" fill-rule="evenodd"/><path d="M652.333 66.9755 964.883 66.9755" stroke="#FFFFFF" stroke-width="1.33333" stroke-linejoin="round" stroke-miterlimit="10" fill="none" fill-rule="evenodd"/><path d="M652.333 105.909 964.883 105.909" stroke="#FFFFFF" stroke-width="1.33333" stroke-linejoin="round" stroke-miterlimit="10" fill="none" fill-rule="evenodd"/><path d="M652.333 144.842 964.883 144.842" stroke="#FFFFFF" stroke-width="1.33333" stroke-linejoin="round" stroke-miterlimit="10" fill="none" fill-rule="evenodd"/><path d="M652.333 183.776 964.883 183.776" stroke="#FFFFFF" stroke-width="1.33333" stroke-linejoin="round" stroke-miterlimit="10" fill="none" fill-rule="evenodd"/><path d="M652.333 222.709 964.883 222.709" stroke="#FFFFFF" stroke-width="1.33333" stroke-linejoin="round" stroke-miterlimit="10" fill="none" fill-rule="evenodd"/><path d="M652.333 289.909 964.883 289.909" stroke="#FFFFFF" stroke-width="1.33333" stroke-linejoin="round" stroke-miterlimit="10" fill="none" fill-rule="evenodd"/><path d="M652.333 328.842 964.883 328.842" stroke="#FFFFFF" stroke-width="1.33333" stroke-linejoin="round" stroke-miterlimit="10" fill="none" fill-rule="evenodd"/><path d="M652.333 396.042 964.883 396.042" stroke="#FFFFFF" stroke-width="1.33333" stroke-linejoin="round" stroke-miterlimit="10" fill="none" fill-rule="evenodd"/><path d="M652.333 434.976 964.883 434.976" stroke="#FFFFFF" stroke-width="1.33333" stroke-linejoin="round" stroke-miterlimit="10" fill="none" fill-rule="evenodd"/><path d="M652.333 530.976 964.883 530.976" stroke="#FFFFFF" stroke-width="1.33333" stroke-linejoin="round" stroke-miterlimit="10" fill="none" fill-rule="evenodd"/><path d="M652.333 569.909 964.883 569.909" stroke="#FFFFFF" stroke-width="1.33333" stroke-linejoin="round" stroke-miterlimit="10" fill="none" fill-rule="evenodd"/><path d="M653-110.224 653 609.509" stroke="#FFFFFF" stroke-width="1.33333" stroke-linejoin="round" stroke-miterlimit="10" fill="none" fill-rule="evenodd"/><path d="M964.216-110.224 964.216 609.509" stroke="#FFFFFF" stroke-width="1.33333" stroke-linejoin="round" stroke-miterlimit="10" fill="none" fill-rule="evenodd"/><path d="M652.333-109.558 964.883-109.558" stroke="#FFFFFF" stroke-width="1.33333" stroke-linejoin="round" stroke-miterlimit="10" fill="none" fill-rule="evenodd"/><path d="M652.333 608.842 964.883 608.842" stroke="#FFFFFF" stroke-width="1.33333" stroke-linejoin="round" stroke-miterlimit="10" fill="none" fill-rule="evenodd"/><text fill="#FFFFFF" font-family="DengXian,DengXian_MSFontService,sans-serif" font-weight="700" font-size="27" transform="translate(755.275 -80)">训练模型</text><g><text font-family="DengXian,DengXian_MSFontService,sans-serif" font-weight="700" font-size="24" transform="translate(662.6 -41)">1.</text></g><text font-family="DengXian,DengXian_MSFontService,sans-serif" font-weight="700" font-size="24" transform="translate(688.433 -41)">初始化参数</text><text font-family="DengXian,DengXian_MSFontService,sans-serif" font-weight="400" font-size="24" transform="translate(688.6 -12)">—</text><text font-family="DengXian,DengXian_MSFontService,sans-serif" font-weight="400" font-size="24" transform="translate(712.6 -12)">epoch</text><text font-family="DengXian,DengXian_MSFontService,sans-serif" font-weight="400" font-size="24" transform="translate(688.6 17)">—</text><text font-family="DengXian,DengXian_MSFontService,sans-serif" font-weight="400" font-size="24" transform="translate(712.6 17)">batch_size</text><g><text font-family="DengXian,DengXian_MSFontService,sans-serif" font-weight="700" font-size="24" transform="translate(662.6 94)">2.</text></g><text font-family="DengXian,DengXian_MSFontService,sans-serif" font-weight="700" font-size="24" transform="translate(688.433 94)">取一个</text><text font-family="DengXian,DengXian_MSFontService,sans-serif" font-weight="700" font-size="24" transform="translate(760.433 94)">batch</text><text font-family="DengXian,DengXian_MSFontService,sans-serif" font-weight="700" font-size="24" transform="translate(828.1 94)">数据</text><g><text font-family="DengXian,DengXian_MSFontService,sans-serif" font-weight="700" font-size="24" transform="translate(662.6 172)">3.</text></g><text font-family="DengXian,DengXian_MSFontService,sans-serif" font-weight="700" font-size="24" transform="translate(688.433 172)">顺序前向传播</text><g><text font-family="DengXian,DengXian_MSFontService,sans-serif" font-weight="700" font-size="24" transform="translate(662.6 250)">4.</text></g><text font-family="DengXian,DengXian_MSFontService,sans-serif" font-weight="700" font-size="24" transform="translate(688.433 250)">计算损失</text><text font-family="DengXian,DengXian_MSFontService,sans-serif" font-weight="400" font-size="24" transform="translate(695.1 279)">—</text><text font-family="DengXian,DengXian_MSFontService,sans-serif" font-weight="400" font-size="24" transform="translate(719.1 279)">交叉熵损失</text><g><text font-family="DengXian,DengXian_MSFontService,sans-serif" font-weight="700" font-size="24" transform="translate(662.6 356)">5.</text></g><text font-family="DengXian,DengXian_MSFontService,sans-serif" font-weight="700" font-size="24" transform="translate(688.433 356)">顺序反向传播</text><text font-family="DengXian,DengXian_MSFontService,sans-serif" font-weight="400" font-size="24" transform="translate(688.6 385)">—</text><text font-family="DengXian,DengXian_MSFontService,sans-serif" font-weight="400" font-size="24" transform="translate(712.6 385)">保存梯度</text><g><text font-family="DengXian,DengXian_MSFontService,sans-serif" font-weight="700" font-size="24" transform="translate(662.6 462)">6.</text></g><text font-family="DengXian,DengXian_MSFontService,sans-serif" font-weight="700" font-size="24" transform="translate(688.433 462)">更新参数</text><text font-family="DengXian,DengXian_MSFontService,sans-serif" font-weight="400" font-size="24" transform="translate(695.1 491)">—</text><text font-family="DengXian,DengXian_MSFontService,sans-serif" font-weight="400" font-size="24" transform="translate(719.1 491)">SGD</text><text font-family="DengXian,DengXian_MSFontService,sans-serif" font-weight="400" font-size="24" transform="translate(695.1 520)">—</text><text font-family="DengXian,DengXian_MSFontService,sans-serif" font-weight="400" font-size="24" transform="translate(719.1 520)">Adam</text><g><text font-family="DengXian,DengXian_MSFontService,sans-serif" font-weight="700" font-size="24" transform="translate(662.6 597)">7.</text></g><text font-family="DengXian,DengXian_MSFontService,sans-serif" font-weight="700" font-size="24" transform="translate(688.433 597)">所有</text><text font-family="DengXian,DengXian_MSFontService,sans-serif" font-weight="700" font-size="24" transform="translate(736.433 597)">epochs</text><text font-family="DengXian,DengXian_MSFontService,sans-serif" font-weight="700" font-size="24" transform="translate(813.767 597)">完成</text><path d="M813 34 813 55.7953 805 55.7953 805 34ZM809 55.7953 821 47.7952 809 71.7953 797 47.7953Z" fill="#4472C4"/><path d="M813 103 813 124.795 805 124.795 805 103ZM809 124.795 821 116.795 809 140.795 797 116.795Z" fill="#4472C4"/><path d="M813 287 813 308.795 805 308.795 805 287ZM809 308.795 821 300.795 809 324.795 797 300.795Z" fill="#4472C4"/><path d="M813 401 813 422.795 805 422.795 805 401ZM809 422.795 821 414.795 809 438.795 797 414.795Z" fill="#4472C4"/><path d="M813 181 813 202.795 805 202.795 805 181ZM809 202.795 821 194.795 809 218.795 797 194.795Z" fill="#4472C4"/><path d="M8.86112e-06-4 31.3921-3.99993 31.3921 4.00007-8.86112e-06 4ZM31.3921 6.95424e-05 23.3922-11.9999 47.3921 0.000104987 23.3921 12.0001Z" fill="#4472C4" transform="matrix(-1 0 0 1 938.392 90)"/><path d="M938 87 938 491.409" stroke="#4472C4" stroke-width="8" stroke-miterlimit="8" fill="none" fill-rule="evenodd"/><path d="M937.354 488 892 488" stroke="#4472C4" stroke-width="8" stroke-miterlimit="8" fill="none" fill-rule="evenodd"/></g></svg>